<svg xmlns="http://www.w3.org/2000/svg" x="0px" y="0px"
width="64" height="64"
viewBox="0 0 172 172"
style=" fill:#000000;"><defs><radialGradient cx="86" cy="86" r="88.69288" gradientUnits="userSpaceOnUse" id="color-1_119530_gr1"><stop offset="0" stop-color="#f4e09d"></stop><stop offset="0.226" stop-color="#f8e8b5"></stop><stop offset="0.513" stop-color="#fcf0cd"></stop><stop offset="0.778" stop-color="#fef4dc"></stop><stop offset="1" stop-color="#fff6e1"></stop></radialGradient><linearGradient x1="88.6875" y1="155.875" x2="88.6875" y2="16.125" gradientUnits="userSpaceOnUse" id="color-2_119530_gr2"><stop offset="0" stop-color="#41bfec"></stop><stop offset="0.235" stop-color="#4cc5ef"></stop><stop offset="0.651" stop-color="#6bd4f6"></stop><stop offset="1" stop-color="#89e4fd"></stop></linearGradient><linearGradient x1="104.48731" y1="54.07519" x2="124.84513" y2="33.71737" gradientUnits="userSpaceOnUse" id="color-3_119530_gr3"><stop offset="0" stop-color="#c7effd"></stop><stop offset="0.369" stop-color="#b8ecfd"></stop><stop offset="1" stop-color="#95e5fd"></stop></linearGradient><linearGradient x1="122.28125" y1="64.72306" x2="122.28125" y2="48.59806" gradientUnits="userSpaceOnUse" id="color-4_119530_gr4"><stop offset="0" stop-color="#42c6ee"></stop><stop offset="0.534" stop-color="#3bc3ed"></stop><stop offset="1" stop-color="#31bfeb"></stop></linearGradient><linearGradient x1="90.03125" y1="129.22306" x2="90.03125" y2="47.34569" gradientUnits="userSpaceOnUse" id="color-5_119530_gr5"><stop offset="0" stop-color="#155cde"></stop><stop offset="0.201" stop-color="#1868e0"></stop><stop offset="0.564" stop-color="#2187e7"></stop><stop offset="1" stop-color="#2eb5f0"></stop></linearGradient></defs><g transform="translate(-17.2,-17.2) scale(1.2,1.2)"><g fill="none" fill-rule="nonzero" stroke="none" stroke-width="1" stroke-linecap="butt" stroke-linejoin="miter" stroke-miterlimit="10" stroke-dasharray="" stroke-dashoffset="0" font-family="none" font-weight="none" font-size="none" text-anchor="none" style="mix-blend-mode: normal"><path d="M0,172v-172h172v172z" fill="none"></path><g><path d="M149.03263,122.73275c1.34375,2.41338 4.042,3.59319 6.80475,3.57975c4.70313,-0.0215 8.47369,3.98556 8.06788,8.76663c-0.35744,4.2355 -4.17638,7.35837 -8.428,7.35837h-26.47725v2.6875h-59.125h-21.5h-29.5625c-4.59562,0 -8.29362,-3.84581 -8.05175,-8.49519c0.22844,-4.36181 4.14144,-7.62981 8.50863,-7.62981h2.23063c3.26531,0 5.848,-2.91056 5.30244,-6.278c-0.43,-2.64181 -2.91325,-4.472 -5.59,-4.472h-13.14994c-4.59562,0 -8.29362,-3.84581 -8.05175,-8.49519c0.22844,-4.36181 4.14144,-7.62981 8.50863,-7.62981h17.01188c3.71144,0 6.71875,-3.00731 6.71875,-6.71875v0c0,-3.71144 -3.00731,-6.71875 -6.71875,-6.71875v0c-3.71144,0 -6.71875,-3.00731 -6.71875,-6.71875v0c0,-3.71144 3.00731,-6.71875 6.71875,-6.71875h22.84375v-18.8125h-20.15625c-5.36156,0 -9.67769,-4.48813 -9.39281,-9.9115c0.26606,-5.08744 4.83213,-8.901 9.92494,-8.901h19.62413v-10.75h64.5h16.125h22.84375c5.36156,0 9.67769,4.48813 9.39281,9.9115c-0.26606,5.08744 -4.83212,8.901 -9.92494,8.901h-7.53037c-5.36156,0 -9.67769,4.48813 -9.39281,9.9115c0.26606,5.08744 4.83212,8.901 9.92494,8.901h6.18662c4.77569,0 8.58388,4.15488 8.00338,9.04613c-0.48106,4.05544 -4.15488,6.91225 -8.2345,7.08156c-3.21694,0.13438 -5.70288,3.09869 -5.03638,6.46612c0.50525,2.54775 2.91056,4.28119 5.50669,4.28119h11.85456c5.36156,0 9.67769,4.48813 9.39281,9.9115c-0.26606,5.08744 -4.83212,8.901 -9.92494,8.901h-6.18662c-5.891,0 -10.30388,6.31562 -6.84238,12.54525zM6.71875,88.6875v0c3.71144,0 6.71875,-3.00731 6.71875,-6.71875v0c0,-3.71144 -3.00731,-6.71875 -6.71875,-6.71875v0c-3.71144,0 -6.71875,3.00731 -6.71875,6.71875v0c0,3.71144 3.00731,6.71875 6.71875,6.71875z" fill="url(#color-1_119530_gr1)"></path><path d="M134.375,155.875h-91.375c-4.45319,0 -8.0625,-3.60931 -8.0625,-8.0625v-123.625c0,-4.45319 3.60931,-8.0625 8.0625,-8.0625h55.78444c2.13925,0 4.18981,0.84925 5.70019,2.36231l35.59056,35.59056c1.51306,1.51038 2.36231,3.56094 2.36231,5.70019v88.03444c0,4.45319 -3.60931,8.0625 -8.0625,8.0625z" fill="url(#color-2_119530_gr2)"></path><path d="M140.07519,54.07788l-35.59056,-35.59056c-0.68531,-0.68531 -1.49425,-1.21475 -2.35962,-1.6125v31.50019c0,4.45319 3.60931,8.0625 8.0625,8.0625h31.50019c-0.39506,-0.86538 -0.9245,-1.67431 -1.6125,-2.35963z" fill="url(#color-3_119530_gr3)"></path><path d="M110.1875,56.4375c-4.45319,0 -8.0625,-3.60931 -8.0625,-8.0625v8.0625c0,4.45319 3.60931,8.0625 8.0625,8.0625h32.25v-4.72194c0,-1.16638 -0.27412,-2.29781 -0.74981,-3.34056z" fill="url(#color-4_119530_gr4)"></path><path d="M110.99913,80.62769l-17.0495,-10.16144c-0.56169,-0.38431 -1.23356,-0.59125 -1.91887,-0.59125c-1.84631,0 -3.34325,1.46469 -3.34325,3.27069v30.60794c-2.01831,-1.03469 -4.29731,-1.62862 -6.71875,-1.62862c-8.15925,0 -14.78125,6.622 -14.78125,14.78125c0,8.15925 6.622,14.78125 14.78125,14.78125c8.15925,0 14.78125,-6.622 14.78125,-14.78125v-27.14375l12.18513,6.62469c1.02394,0.602 2.33544,0.44344 3.17931,-0.38162c0.48644,-0.47837 0.76056,-1.12606 0.76056,-1.80062v-10.05394c0,-1.40287 -0.70144,-2.71706 -1.87588,-3.52331z" fill="url(#color-5_119530_gr5)"></path></g><path d="" fill="none"></path></g></g></svg>